<svg width="328" height="299" viewBox="0 0 328 299" fill="none" xmlns="http://www.w3.org/2000/svg">
<path d="M254.818 32.8618L244.671 25.5768C241.852 23.5387 237.949 24.1891 235.911 27.0078L184.222 98.4273C180.666 103.371 172.861 100.856 172.861 94.7848L172.47 28.1786C172.47 24.7095 169.609 21.8909 166.14 21.9343H153.651C150.182 22.021 147.363 24.8396 147.407 28.3087L147.797 94.9149C147.797 100.986 140.035 103.588 136.435 98.6441L65.7532 2.5508C63.7151 -0.224455 59.7689 -0.831532 56.9937 1.20655L46.9333 8.62169C44.1581 10.6598 43.551 14.6058 45.5891 17.3811L116.272 113.474C119.871 118.374 115.101 125.009 109.29 123.188L34.1412 98.6008C30.8456 97.56 27.2897 99.3813 26.249 102.677L22.4332 114.602C21.3924 117.897 23.2137 121.453 26.5093 122.494L101.658 147.081C107.469 148.946 107.512 157.098 101.701 159.049L4.30715 191.052C1.01153 192.136 -0.766297 195.691 0.317789 198.987L4.22047 210.869C5.30455 214.164 8.8603 215.942 12.1559 214.858L158.724 166.595C159.982 166.161 161.326 166.161 162.627 166.595L315.483 215.248C318.779 216.289 322.334 214.468 323.375 211.172L327.191 199.247C328.232 195.952 326.411 192.396 323.115 191.355L219.606 158.486C213.796 156.621 213.752 148.469 219.563 146.517L297.444 120.803C300.74 119.719 302.517 116.163 301.433 112.867L297.531 100.986C296.447 97.6901 292.891 95.9122 289.595 96.9963L211.714 122.711C205.947 124.619 201.09 118.028 204.646 113.084L256.335 41.6646C258.374 38.846 257.723 34.9433 254.904 32.9052L254.818 32.8618Z" fill="#A5D75F"/>
<path d="M70.1764 267.759L80.3233 275.044C83.142 277.082 87.0448 276.432 89.0828 273.613L136.956 207.05C140.512 202.107 148.317 204.622 148.317 210.693L148.708 292.693C148.708 296.162 151.57 298.981 155.039 298.937H167.527C170.996 298.851 173.815 296.032 173.771 292.563L173.381 210.563C173.381 204.492 181.143 201.89 184.743 206.834L233.266 272.919C235.304 275.695 239.25 276.302 242.026 274.264L252.086 266.849C254.861 264.81 255.468 260.864 253.43 258.089L165.576 138.363C163.061 134.937 157.901 134.937 155.429 138.406L68.7454 258.956C66.7073 261.775 67.3578 265.678 70.1764 267.716V267.759Z" fill="#00693E"/>
</svg>
